PathFileType	4	(X/Y/Z)	TVC_58_Cal_02_0_static_RCNL2025.trc
DataRate	CameraRate	NumFrames	NumMarkers	Units	OrigDataRate	OrigDataStartFrame	OrigNumFrames
100	100	6	27	mm	100	39	102
Frame#	Time	R_Shoulder			L_Shoulder			C7			J_Notch			R_Elbow			L_Elbow			R_Wrist			L_Wrist			R_Asis			L_Asis			R_Psis			L_Psis			Sacral			Thoracic			Sternum			R_Thigh_Lateral			R_Knee_Lateral			R_Shank_Lateral			R_Ankle_Lateral			R_Heel			R_Toe			L_Thigh_Lateral			L_Knee_Lateral			L_Shank_Lateral			L_Ankle_Lateral			L_Heel			L_Toe		
		X1	Y1	Z1	X2	Y2	Z2	X3	Y3	Z3	X4	Y4	Z4	X5	Y5	Z5	X6	Y6	Z6	X7	Y7	Z7	X8	Y8	Z8	X9	Y9	Z9	X10	Y10	Z10	X11	Y11	Z11	X12	Y12	Z12	X13	Y13	Z13	X14	Y14	Z14	X15	Y15	Z15	X16	Y16	Z16	X17	Y17	Z17	X18	Y18	Z18	X19	Y19	Z19	X20	Y20	Z20	X21	Y21	Z21	X22	Y22	Z22	X23	Y23	Z23	X24	Y24	Z24	X25	Y25	Z25	X26	Y26	Z26	X27	Y27	Z27
39	0.38000000	-284.571655	1354.875488	-26.471281	-271.760529	1362.195312	-381.202759	-340.202362	1426.265747	-212.559341	-190.960052	1332.089111	-201.958542	-302.814056	1044.465576	56.849895	-322.390900	1052.689453	-455.267609	-218.782845	806.542450	90.952484	-262.906639	812.980652	-507.651398	-178.371567	909.377319	-58.874107	-166.456406	907.157471	-365.247070	-395.566406	965.859680	-150.195938	-397.533051	958.709534	-261.743927	-396.549728	962.284607	-205.969933	-376.947418	1119.842896	-209.913269	-86.182716	1082.721313	-209.557404	-229.570038	704.844055	33.150814	-237.067566	469.981232	-48.059723	-277.939880	272.380249	-2.098599	-308.500153	70.379471	-97.634232	-356.243988	61.162186	-156.100204	-178.867172	46.402275	-117.862694	-267.871490	676.317078	-445.950256	-235.683411	469.869965	-344.327789	-275.475647	286.802826	-403.770355	-322.908447	65.111847	-315.384766	-363.368744	57.641983	-261.763275	-184.419083	44.639519	-303.821136
40	0.39000000	-284.551117	1354.848389	-26.493689	-271.831482	1362.224243	-380.866608	-340.155396	1426.238403	-212.484924	-191.185257	1332.192505	-201.661392	-302.694000	1044.412109	57.141842	-322.334778	1052.671021	-455.180969	-218.336143	806.472839	90.534424	-262.878166	812.938232	-507.601273	-179.102783	909.311584	-59.076015	-166.451935	907.210266	-365.219025	-395.644775	965.876953	-150.108841	-397.488739	958.652100	-261.671112	-396.566757	962.264526	-205.889977	-376.976257	1119.884155	-209.854141	-86.203606	1082.693237	-209.541656	-229.614136	704.844177	33.164314	-236.846375	469.853760	-48.195324	-277.896637	272.261536	-1.982707	-308.528839	70.361984	-97.696815	-356.240570	61.233059	-156.101181	-178.903793	46.478336	-117.940796	-267.771759	676.285950	-445.839233	-235.433075	469.861176	-344.287842	-275.483490	286.688812	-403.935852	-322.865936	65.117798	-315.318024	-363.364380	57.683311	-261.768188	-184.364334	44.553440	-303.782440
41	0.40000000	-284.620789	1354.932495	-26.431391	-271.933807	1362.148682	-380.893982	-340.151459	1426.286011	-212.445694	-191.295670	1332.182617	-201.529617	-302.709351	1044.518677	57.216915	-322.443542	1052.683838	-455.109467	-218.187576	806.710754	90.870949	-262.955040	812.906738	-507.396210	-177.667877	909.813416	-57.853588	-166.459000	907.250610	-365.095703	-395.662231	965.908630	-150.158127	-397.484772	958.665894	-261.618073	-396.573502	962.287262	-205.888100	-376.985229	1119.875244	-209.761246	-86.258926	1082.710083	-209.482346	-229.587372	704.852356	33.223412	-237.020706	469.957825	-48.069695	-277.995941	272.218170	-1.861236	-308.553986	70.466530	-97.716789	-356.232910	61.277557	-156.123199	-178.898193	46.542419	-117.890526	-267.798340	676.344543	-445.799500	-235.336594	469.829773	-344.216705	-275.338104	286.651459	-403.977325	-322.854645	65.124870	-315.269531	-363.355988	57.704777	-261.720917	-184.447006	44.650604	-303.778717
42	0.41000000	-284.604645	1354.916138	-26.348696	-271.908112	1362.092163	-380.847015	-340.200043	1426.293579	-212.422256	-191.263016	1332.170166	-201.469681	-302.837799	1044.605225	57.450951	-322.455566	1052.628296	-454.983948	-218.463364	806.782043	91.127480	-263.076134	812.941101	-507.369263	-175.636414	910.225891	-56.926327	-166.456619	907.287964	-365.026093	-395.697845	965.864746	-150.012009	-397.526001	958.616699	-261.487427	-396.611923	962.240723	-205.749718	-377.040985	1119.892822	-209.656815	-86.286354	1082.693359	-209.440720	-229.516556	704.820618	33.287121	-237.080933	470.038788	-47.920155	-278.031250	272.354248	-1.926757	-308.550354	70.415909	-97.703049	-356.236877	61.242676	-156.104431	-178.880524	46.453510	-117.924141	-267.711792	676.364746	-445.756348	-235.255661	469.852173	-344.213074	-275.196808	286.647461	-403.857819	-322.862976	65.155090	-315.294830	-363.385193	57.810753	-261.696289	-184.362503	44.647251	-303.759125
43	0.42000000	-284.674683	1354.962891	-26.291183	-271.949036	1362.155640	-380.813446	-340.256744	1426.314453	-212.348587	-191.359924	1332.125610	-201.470184	-302.742340	1044.437744	57.434505	-322.470490	1052.563232	-454.954376	-218.206398	806.784607	91.153145	-263.095535	812.906586	-507.281052	-174.735916	910.214478	-56.637894	-166.475449	907.274109	-364.958679	-395.723389	965.849670	-149.904785	-397.544312	958.552307	-261.455353	-396.633850	962.200989	-205.680069	-377.121643	1119.905518	-209.613602	-86.245148	1082.704712	-209.313812	-229.498245	704.822449	33.316311	-236.907272	469.892609	-48.012669	-277.937469	272.373718	-1.873241	-308.473328	70.391548	-97.643196	-356.228943	61.271339	-156.122345	-178.923828	46.517479	-117.864830	-267.557648	676.364136	-445.722931	-235.165756	469.842407	-344.110931	-274.828156	286.506500	-404.003265	-322.824371	65.124031	-315.312256	-363.345093	57.763641	-261.751648	-184.429993	44.677174	-303.793823
44	0.43000000	-284.726715	1354.919434	-26.265955	-271.940857	1362.017456	-380.756042	-340.291443	1426.296143	-212.302963	-191.366470	1332.055420	-201.362915	-302.686096	1044.521973	57.532314	-322.536835	1052.541016	-454.886139	-217.868744	806.772736	91.129532	-263.079422	812.841705	-507.209320	-174.803436	910.235962	-56.667458	-166.419113	907.263611	-365.023407	-395.730133	965.801147	-149.884811	-397.554352	958.530151	-261.337250	-396.642242	962.165649	-205.611031	-377.216583	1119.853149	-209.553650	-86.290977	1082.721069	-209.174988	-229.439804	704.828247	33.352345	-236.746887	469.795776	-48.002968	-277.913391	272.330231	-1.985780	-308.524384	70.362556	-97.604736	-356.184631	61.217182	-156.057632	-178.953384	46.512142	-117.896919	-267.505524	676.351501	-445.670135	-235.020584	469.850922	-344.070496	-274.660339	286.522583	-403.942566	-322.870361	65.123787	-315.323090	-363.277863	57.674412	-261.689026	-184.416840	44.566067	-303.810333
